<svg id="SvgjsSvg1358" width="1081.75" height="187.75" xmlns="http://www.w3.org/2000/svg" version="1.1" xmlns:xlink="http://www.w3.org/1999/xlink" xmlns:svgjs="http://svgjs.com/svgjs"><defs id="SvgjsDefs1359"><marker id="SvgjsMarker1390" markerWidth="14" markerHeight="10" refX="10" refY="5" viewBox="0 0 14 10" orient="auto" markerUnits="userSpaceOnUse" stroke-dasharray="0,0"><path id="SvgjsPath1391" d="M0,0 L14,5 L0,10 L0,0" fill="#323232" stroke="#323232" stroke-width="1"></path></marker></defs><rect id="svgbackgroundid" width="1081.75" height="187.75" fill="#f5f5f5"></rect><g id="SvgjsG1361" transform="translate(52.749999999999886,25)"><path id="SvgjsPath1362" d="M 0 0L 1004 0L 1004 55L 0 55Z" stroke="none" fill="none"></path><g id="SvgjsG1363"><text id="SvgjsText1364" font-family="微软雅黑" text-anchor="middle" font-size="20px" width="1004px" fill="#323232" font-weight="400" align="middle" lineHeight="125%" anchor="middle" family="微软雅黑" size="20px" weight="400" font-style="" opacity="1" y="9.5" transform="rotate(0)"><tspan id="SvgjsTspan1365" dy="25" x="502"><tspan id="SvgjsTspan1366" style="text-decoration:;">(0)  (000 0000 0000 0000 0000 0000 0000 0000 0000 000）（0 0000 0000 00）（00 0000 0000 0000）</tspan></tspan></text></g></g><g id="SvgjsG1367" transform="matrix(6.123233995736766e-17,1,-1,6.123233995736766e-17,608.7499999999998,81.99999999999999)"><path id="SvgjsPath1368" d="M 0 499.4999999999998Q 6.699999999999978 499.4999999999998 6.699999999999978 490.4999999999998L 6.699999999999978 258.7499999999999Q 6.699999999999978 249.7499999999999 22 249.7499999999999Q 6.699999999999978 249.7499999999999 6.699999999999978 240.7499999999999L 6.699999999999978 9Q 6.699999999999978 0 0 0" stroke="rgba(50,50,50,1)" stroke-width="2" fill="none"></path><path id="SvgjsPath1369" d="M 0 0L 66.99999999999977 0L 66.99999999999977 499.4999999999998L 0 499.4999999999998Z" stroke="none" fill="none"></path><g id="SvgjsG1370"><text id="SvgjsText1371" font-family="微软雅黑" text-anchor="start" font-size="13px" width="40px" fill="#323232" font-weight="400" align="middle" lineHeight="125%" anchor="start" family="微软雅黑" size="13px" weight="400" font-style="" opacity="1" y="239.1249999999999" transform="rotate(0)"></text></g></g><g id="SvgjsG1372" transform="matrix(6.123233995736766e-17,1,-1,6.123233995736766e-17,799.7499999999999,82.99999999999994)"><path id="SvgjsPath1373" d="M 0 151.99999999999977Q 6.499999999999989 151.99999999999977 6.499999999999989 142.99999999999977L 6.499999999999989 84.99999999999989Q 6.499999999999989 75.99999999999989 22 75.99999999999989Q 6.499999999999989 75.99999999999989 6.499999999999989 66.99999999999989L 6.499999999999989 9Q 6.499999999999989 0 0 0" stroke="rgba(50,50,50,1)" stroke-width="2" fill="none"></path><path id="SvgjsPath1374" d="M 0 0L 64.99999999999989 0L 64.99999999999989 151.99999999999977L 0 151.99999999999977Z" stroke="none" fill="none"></path><g id="SvgjsG1375"><text id="SvgjsText1376" font-family="微软雅黑" text-anchor="start" font-size="13px" width="38px" fill="#323232" font-weight="400" align="middle" lineHeight="125%" anchor="start" family="微软雅黑" size="13px" weight="400" font-style="" opacity="1" y="65.37499999999989" transform="rotate(0)"></text></g></g><g id="SvgjsG1377" transform="matrix(6.123233995736766e-17,1,-1,6.123233995736766e-17,1023.7500288596816,82.00000024945211)"><path id="SvgjsPath1378" d="M 0 186.2311368209257Q 6.800000000000001 186.2311368209257 6.800000000000001 177.2311368209257L 6.800000000000001 102.11556841046286Q 6.800000000000001 93.11556841046286 22 93.11556841046286Q 6.800000000000001 93.11556841046286 6.800000000000001 84.11556841046286L 6.800000000000001 9Q 6.800000000000001 0 0 0" stroke="rgba(50,50,50,1)" stroke-width="2" fill="none"></path><path id="SvgjsPath1379" d="M 0 0L 68 0L 68 186.2311368209257L 0 186.2311368209257Z" stroke="none" fill="none"></path><g id="SvgjsG1380"><text id="SvgjsText1381" font-family="微软雅黑" text-anchor="start" font-size="13px" width="41px" fill="#323232" font-weight="400" align="middle" lineHeight="125%" anchor="start" family="微软雅黑" size="13px" weight="400" font-style="" opacity="1" y="82.49056841046286" transform="rotate(0)"></text></g></g><g id="SvgjsG1382" transform="translate(25.000000000000114,111)"><path id="SvgjsPath1383" d="M 0 0L 120 0L 120 40L 0 40Z" stroke="none" fill="none"></path><g id="SvgjsG1384"><text id="SvgjsText1385" font-family="微软雅黑" text-anchor="middle" font-size="18px" width="120px" fill="#323232" font-weight="400" align="middle" lineHeight="125%" anchor="middle" family="微软雅黑" size="18px" weight="400" font-style="" opacity="1" y="4.25" transform="rotate(0)"><tspan id="SvgjsTspan1386" dy="22" x="60"><tspan id="SvgjsTspan1387" style="text-decoration:;">1bit 符号位</tspan></tspan></text></g></g><g id="SvgjsG1388"><path id="SvgjsPath1389" d="M84.74999999999989 78L84.74999999999989 94L85.00000000000011 94L85.00000000000011 107.39999999999998" stroke="#323232" stroke-width="2" fill="none" marker-end="url(#SvgjsMarker1390)"></path></g><g id="SvgjsG1392" transform="translate(221.0409959758548,121.75)"><path id="SvgjsPath1393" d="M 0 0L 266.875 0L 266.875 40.5L 0 40.5Z" stroke="none" fill="none"></path><g id="SvgjsG1394"><text id="SvgjsText1395" font-family="微软雅黑" text-anchor="middle" font-size="18px" width="267px" fill="#323232" font-weight="400" align="middle" lineHeight="125%" anchor="middle" family="微软雅黑" size="18px" weight="400" font-style="" opacity="1" y="-6.5" transform="rotate(0)"><tspan id="SvgjsTspan1396" dy="22" x="133.5"><tspan id="SvgjsTspan1397" style="text-decoration:;">42 bit timestamp</tspan></tspan><tspan id="SvgjsTspan1398" dy="22" x="133.5"><tspan id="SvgjsTspan1399" style="text-decoration:;">单位为1ms，有效期到2109年</tspan></tspan></text></g></g><g id="SvgjsG1400" transform="translate(821.3844315895371,125.5)"><path id="SvgjsPath1401" d="M 0 0L 218.49999999999983 0L 218.49999999999983 33L 0 33Z" stroke="none" fill="none"></path><g id="SvgjsG1402"><text id="SvgjsText1403" font-family="微软雅黑" text-anchor="middle" font-size="18px" width="219px" fill="#323232" font-weight="400" align="middle" lineHeight="125%" anchor="middle" family="微软雅黑" size="18px" weight="400" font-style="" opacity="1" y="-10.25" transform="rotate(0)"><tspan id="SvgjsTspan1404" dy="22" x="109.5"><tspan id="SvgjsTspan1405" style="text-decoration:;">10 bit sequence</tspan></tspan><tspan id="SvgjsTspan1406" dy="22" x="109.5"><tspan id="SvgjsTspan1407" style="text-decoration:;">1024/ms，1024000/s</tspan></tspan></text></g></g><g id="SvgjsG1408" transform="translate(617.2782947686114,125.5)"><path id="SvgjsPath1409" d="M 0 0L 218.49999999999983 0L 218.49999999999983 33L 0 33Z" stroke="none" fill="none"></path><g id="SvgjsG1410"><text id="SvgjsText1411" font-family="微软雅黑" text-anchor="middle" font-size="18px" width="219px" fill="#323232" font-weight="400" align="middle" lineHeight="125%" anchor="middle" family="微软雅黑" size="18px" weight="400" font-style="" opacity="1" y="-10.25" transform="rotate(0)"><tspan id="SvgjsTspan1412" dy="22" x="109.5"><tspan id="SvgjsTspan1413" style="text-decoration:;">11 bit channel</tspan></tspan><tspan id="SvgjsTspan1414" dy="22" x="109.5"><tspan id="SvgjsTspan1415" style="text-decoration:;">2048个共享号段</tspan></tspan></text></g></g></svg>