<svg id="SvgjsSvg1271" width="402.421875" height="605.5" xmlns="http://www.w3.org/2000/svg" version="1.1" xmlns:xlink="http://www.w3.org/1999/xlink" xmlns:svgjs="http://svgjs.com/svgjs"><defs id="SvgjsDefs1272"><marker id="SvgjsMarker1320" markerWidth="14" markerHeight="10" refX="10" refY="5" viewBox="0 0 14 10" orient="auto" markerUnits="userSpaceOnUse" stroke-dasharray="0,0"><path id="SvgjsPath1321" d="M0,0 L14,5 L0,10 L0,0" fill="#323232" stroke="#323232" stroke-width="1"></path></marker><marker id="SvgjsMarker1324" markerWidth="14" markerHeight="10" refX="10" refY="5" viewBox="0 0 14 10" orient="auto" markerUnits="userSpaceOnUse" stroke-dasharray="0,0"><path id="SvgjsPath1325" d="M0,0 L14,5 L0,10 L0,0" fill="#323232" stroke="#323232" stroke-width="1"></path></marker><marker id="SvgjsMarker1328" markerWidth="14" markerHeight="10" refX="10" refY="5" viewBox="0 0 14 10" orient="auto" markerUnits="userSpaceOnUse" stroke-dasharray="0,0"><path id="SvgjsPath1329" d="M0,0 L14,5 L0,10 L0,0" fill="#323232" stroke="#323232" stroke-width="1"></path></marker><marker id="SvgjsMarker1332" markerWidth="14" markerHeight="10" refX="10" refY="5" viewBox="0 0 14 10" orient="auto" markerUnits="userSpaceOnUse" stroke-dasharray="0,0"><path id="SvgjsPath1333" d="M0,0 L14,5 L0,10 L0,0" fill="#323232" stroke="#323232" stroke-width="1"></path></marker><marker id="SvgjsMarker1336" markerWidth="14" markerHeight="10" refX="10" refY="5" viewBox="0 0 14 10" orient="auto" markerUnits="userSpaceOnUse" stroke-dasharray="0,0"><path id="SvgjsPath1337" d="M0,0 L14,5 L0,10 L0,0" fill="#323232" stroke="#323232" stroke-width="1"></path></marker><marker id="SvgjsMarker1340" markerWidth="14" markerHeight="10" refX="10" refY="5" viewBox="0 0 14 10" orient="auto" markerUnits="userSpaceOnUse" stroke-dasharray="0,0"><path id="SvgjsPath1341" d="M0,0 L14,5 L0,10 L0,0" fill="#323232" stroke="#323232" stroke-width="1"></path></marker><marker id="SvgjsMarker1348" markerWidth="14" markerHeight="10" refX="10" refY="5" viewBox="0 0 14 10" orient="auto" markerUnits="userSpaceOnUse" stroke-dasharray="0,0"><path id="SvgjsPath1349" d="M0,0 L14,5 L0,10 L0,0" fill="#323232" stroke="#323232" stroke-width="1"></path></marker><marker id="SvgjsMarker1356" markerWidth="14" markerHeight="10" refX="10" refY="5" viewBox="0 0 14 10" orient="auto" markerUnits="userSpaceOnUse" stroke-dasharray="0,0"><path id="SvgjsPath1357" d="M0,0 L14,5 L0,10 L0,0" fill="#323232" stroke="#323232" stroke-width="1"></path></marker></defs><rect id="svgbackgroundid" width="402.421875" height="605.5" fill="#f5f5f5"></rect><g id="SvgjsG1274" transform="translate(191.4298918511065,299.5000000000002)"><path id="SvgjsPath1275" d="M 0 0L 112 0L 112 40L 0 40Z" stroke="rgba(50,50,50,1)" stroke-width="2" fill-opacity="1" fill="#ffffff"></path><g id="SvgjsG1276"><text id="SvgjsText1277" font-family="微软雅黑" text-anchor="middle" font-size="13px" width="92px" fill="#323232" font-weight="400" align="middle" lineHeight="125%" anchor="middle" family="微软雅黑" size="13px" weight="400" font-style="" opacity="1" y="9.375" transform="rotate(0)"><tspan id="SvgjsTspan1278" dy="16" x="56"><tspan id="SvgjsTspan1279" style="text-decoration:;">续期</tspan></tspan></text></g></g><g id="SvgjsG1280" transform="translate(191.43026911468814,206.50000000000028)"><path id="SvgjsPath1281" d="M 0 0L 112 0L 112 40L 0 40Z" stroke="rgba(50,50,50,1)" stroke-width="2" fill-opacity="1" fill="#ffffff"></path><g id="SvgjsG1282"><text id="SvgjsText1283" font-family="微软雅黑" text-anchor="middle" font-size="13px" width="92px" fill="#323232" font-weight="400" align="middle" lineHeight="125%" anchor="middle" family="微软雅黑" size="13px" weight="400" font-style="" opacity="1" y="9.375" transform="rotate(0)"><tspan id="SvgjsTspan1284" dy="16" x="56"><tspan id="SvgjsTspan1285" style="text-decoration:;">创建续期线程</tspan></tspan></text></g></g><g id="SvgjsG1286" transform="translate(195.27370472837038,25.000000000000284)"><path id="SvgjsPath1287" d="M 0 18Q 0 0 18 0L 86.31312877263565 0Q 104.31312877263565 0 104.31312877263565 18L 104.31312877263565 30Q 104.31312877263565 48 86.31312877263565 48L 18 48Q 0 48 0 30L 0 18Z" stroke="rgba(50,50,50,1)" stroke-width="2" fill-opacity="1" fill="#ffffff"></path><g id="SvgjsG1288"><text id="SvgjsText1289" font-family="微软雅黑" text-anchor="middle" font-size="13px" width="85px" fill="#323232" font-weight="400" align="middle" lineHeight="125%" anchor="middle" family="微软雅黑" size="13px" weight="400" font-style="" opacity="1" y="13.375" transform="rotate(0)"><tspan id="SvgjsTspan1290" dy="16" x="52.5"><tspan id="SvgjsTspan1291" style="text-decoration:;">程序启动</tspan></tspan></text></g></g><g id="SvgjsG1292" transform="translate(192.43026911468814,122.00000000000028)"><path id="SvgjsPath1293" d="M 0 0L 110 0L 110 40L 0 40Z" stroke="rgba(50,50,50,1)" stroke-width="2" fill-opacity="1" fill="#ffffff"></path><g id="SvgjsG1294"><text id="SvgjsText1295" font-family="微软雅黑" text-anchor="middle" font-size="13px" width="90px" fill="#323232" font-weight="400" align="middle" lineHeight="125%" anchor="middle" family="微软雅黑" size="13px" weight="400" font-style="" opacity="1" y="0.875" transform="rotate(0)"><tspan id="SvgjsTspan1296" dy="16" x="55"><tspan id="SvgjsTspan1297" style="text-decoration:;">申请占用一个</tspan></tspan><tspan id="SvgjsTspan1298" dy="16" x="55"><tspan id="SvgjsTspan1299" style="text-decoration:;">channel</tspan></tspan></text></g></g><g id="SvgjsG1300" transform="translate(191.4298918511065,510.2499999999998)"><path id="SvgjsPath1301" d="M 0 0L 112 0L 112 40L 0 40Z" stroke="rgba(50,50,50,1)" stroke-width="2" fill-opacity="1" fill="#ffffff"></path><g id="SvgjsG1302"><text id="SvgjsText1303" font-family="微软雅黑" text-anchor="middle" font-size="13px" width="92px" fill="#323232" font-weight="400" align="middle" lineHeight="125%" anchor="middle" family="微软雅黑" size="13px" weight="400" font-style="" opacity="1" y="9.375" transform="rotate(0)"><tspan id="SvgjsTspan1304" dy="16" x="56"><tspan id="SvgjsTspan1305" style="text-decoration:;">sleep ttl/2</tspan></tspan></text></g></g><g id="SvgjsG1306" transform="translate(187.4298918511065,381.6875)"><path id="SvgjsPath1307" d="M 0 40L 60 0L 120 40L 60 80Z" stroke="rgba(50,50,50,1)" stroke-width="2" fill-opacity="1" fill="#ffffff"></path><g id="SvgjsG1308"><text id="SvgjsText1309" font-family="微软雅黑" text-anchor="middle" font-size="13px" width="100px" fill="#323232" font-weight="400" align="middle" lineHeight="125%" anchor="middle" family="微软雅黑" size="13px" weight="400" font-style="" opacity="1" y="29.775" transform="rotate(0)"><tspan id="SvgjsTspan1310" dy="16" x="60"><tspan id="SvgjsTspan1311" style="text-decoration:;">续期成功</tspan></tspan></text></g></g><g id="SvgjsG1312" transform="translate(25.007608148893723,401.6875)"><path id="SvgjsPath1313" d="M 0 0L 112 0L 112 40L 0 40Z" stroke="rgba(50,50,50,1)" stroke-width="2" fill-opacity="1" fill="#ffffff"></path><g id="SvgjsG1314"><text id="SvgjsText1315" font-family="微软雅黑" text-anchor="middle" font-size="13px" width="92px" fill="#323232" font-weight="400" align="middle" lineHeight="125%" anchor="middle" family="微软雅黑" size="13px" weight="400" font-style="" opacity="1" y="9.375" transform="rotate(0)"><tspan id="SvgjsTspan1316" dy="16" x="56"><tspan id="SvgjsTspan1317" style="text-decoration:;">sleep 5s</tspan></tspan></text></g></g><g id="SvgjsG1318"><path id="SvgjsPath1319" d="M81.00760814889372 400.6875L81.00760814889372 319.5000000000002L187.8298918511066 319.5000000000002" stroke="#323232" stroke-width="2" fill="none" marker-end="url(#SvgjsMarker1320)"></path></g><g id="SvgjsG1322"><path id="SvgjsPath1323" d="M247.43026911468814 74.00000000000028L247.43026911468814 97.50000000000028L247.43026911468814 97.50000000000028L247.43026911468814 118.40000000000026" stroke="#323232" stroke-width="2" fill="none" marker-end="url(#SvgjsMarker1324)"></path></g><g id="SvgjsG1326"><path id="SvgjsPath1327" d="M247.43026911468814 163.00000000000028L247.43026911468814 184.25000000000028L247.43026911468814 184.25000000000028L247.43026911468814 202.90000000000026" stroke="#323232" stroke-width="2" fill="none" marker-end="url(#SvgjsMarker1328)"></path></g><g id="SvgjsG1330"><path id="SvgjsPath1331" d="M247.42989185110628 247.50000000000028L247.42989185110628 273.0000000000002L247.42989185110628 273.0000000000002L247.42989185110628 295.9000000000002" stroke="#323232" stroke-width="2" fill="none" marker-end="url(#SvgjsMarker1332)"></path></g><g id="SvgjsG1334"><path id="SvgjsPath1335" d="M247.42989185110628 340.5000000000002L247.42989185110628 360.5937500000002L247.42989185110628 360.5937500000002L247.42989185110628 378.0875" stroke="#323232" stroke-width="2" fill="none" marker-end="url(#SvgjsMarker1336)"></path></g><g id="SvgjsG1338"><path id="SvgjsPath1339" d="M247.42989185110628 462.6875L247.42989185110628 485.96875L247.42989185110628 485.96875L247.42989185110628 506.64999999999975" stroke="#323232" stroke-width="2" fill="none" marker-end="url(#SvgjsMarker1340)"></path><rect id="SvgjsRect1342" width="8" height="16" x="243.42989185110628" y="476.6687499999999" fill="#ffffff"></rect><text id="SvgjsText1343" font-family="微软雅黑" text-anchor="middle" font-size="13px" width="8px" fill="#323232" font-weight="400" align="top" lineHeight="16px" anchor="middle" family="微软雅黑" size="13px" weight="400" font-style="" opacity="1" y="474.0437499999999" transform="rotate(0)"><tspan id="SvgjsTspan1344" dy="16" x="247.42989185110628"><tspan id="SvgjsTspan1345" style="text-decoration:;">Y</tspan></tspan></text></g><g id="SvgjsG1346"><path id="SvgjsPath1347" d="M186.4298918511065 421.6875L162.21875 421.6875L162.21875 421.6875L140.60760814889363 421.6875" stroke="#323232" stroke-width="2" fill="none" marker-end="url(#SvgjsMarker1348)"></path><rect id="SvgjsRect1350" width="11" height="16" x="158.01875000000007" y="413.6875" fill="#ffffff"></rect><text id="SvgjsText1351" font-family="微软雅黑" text-anchor="middle" font-size="13px" width="11px" fill="#323232" font-weight="400" align="top" lineHeight="16px" anchor="middle" family="微软雅黑" size="13px" weight="400" font-style="" opacity="1" y="411.0625" transform="rotate(0)"><tspan id="SvgjsTspan1352" dy="16" x="163.51875000000007"><tspan id="SvgjsTspan1353" style="text-decoration:;">N</tspan></tspan></text></g><g id="SvgjsG1354"><path id="SvgjsPath1355" d="M247.42989185110673 551.2499999999998L247.42989185110673 580.2499999999998L377.4298918511063 580.2499999999998L377.4298918511063 319.5000000000002L307.0298918511062 319.5000000000002" stroke="#323232" stroke-width="2" fill="none" marker-end="url(#SvgjsMarker1356)"></path></g></svg>